<?xml version="1.0" encoding="utf-8"?>
<!-- Generator: Adobe Illustrator 16.0.0, SVG Export Plug-In . SVG Version: 6.00 Build 0)  -->
<!DOCTYPE svg PUBLIC "-//W3C//DTD SVG 1.1//EN" "http://www.w3.org/Graphics/SVG/1.1/DTD/svg11.dtd">
<svg version="1.1" id="图层_1" xmlns="http://www.w3.org/2000/svg" xmlns:xlink="http://www.w3.org/1999/xlink" x="0px" y="0px"
	 width="522.9px" height="150.2px" viewBox="0 0 522.9 150.2" enable-background="new 0 0 522.9 150.2" xml:space="preserve">
<path fill="#087EC1" d="M71,63.3c1.2-0.1,2.3-1.8,2.8-2.5c0.6-0.8-0.4-0.8-0.7-1c-0.3-0.1-0.5-0.1-1,0.2c-0.6,0.4-1,1.1-1.5,1.6
	c-0.4,0.4-0.1,0.4-0.1,1C70.5,63.1,71,63.3,71,63.3z M101.5,132.4l-2.6-5.5c-1.4-2.8,0-2.8,2.1-4.601c2-1.899,4-1,7-1.699
	c3-0.7,2-3.2,2.7-6.4c0.7-3.3-1.8-6-2.3-7c-0.4-1,0-3.199-0.9-7c-1-3.699-4.6-14.5-5.6-15.199c-0.9-0.701,16.3-3.101,16.3-3.101
	c6-1.399,5.2,24.399,5.2,24.399L143,94.6V56.3l-19-11.4c0,0-0.3,21.3-3,24.2s-6.8,3.5-6.8,3.5l-23.4,3c-1.5-2.1-9.8-6-9.8-6
	c-0.1-5.1,2.5-7,5.7-8.9c3.2-1.8,2.6-4.5,1.7-5.3c-1-0.7-1-1.8-1-1.8c-0.2-6.9-4-17.9-16.8-17.8c-11.6,0-15.1,2.2-17.8,7
	c-2.7,4.8-4.1,6.3-6.5,7.8c-2.4,1.5-2.3,2.6-3.3,5.1c-1,2.6,4.2,4.9,4.6,5.8c0.5,0.9-1.3,3.6-1.3,3.6l3.6,1.5l2.5,8.2L41,76.5
	l-8.4,7L24.1,84.2v14.9c0,0,11-1.9,11.7-1.9c1.1,0,4,1.6,5.5,2.1c1.7,0.5,4.9,0.201,7.4,1C51.3,100.9,51.3,107,51.3,107
	c-1.997,6.675-4.854,13.062-8.5,19l2.2,1.799c8.6,6.801,27,29.601,56.6,4.601H101.5z M29.2,91.4c-1.8,0.2,0.3,0.8-0.4,0.601
	C28.1,91.7,28,89.6,28,89.6s-0.4-1,0.7-1.6c1.6-0.101-1.3,0.399,1,0c2.3-0.601,2.6-0.201,2.3,0.5c-0.4,0.6-1.2,0.699-0.3,1
	c0.9,0.399-0.8,1.6-2.5,1.799V91.4z M84.2,74.8c1,0.5,2,1,1.3,1.201l-17.9,1.799c0,0-1.2-0.5,0-1c1.3-0.6,6.1-3.299,7.6-2.899
	s3,1,4,1C80.2,74.8,83.2,74.3,84.2,74.8z M72.1,47.2c0.8-1.8,2.3-5.6,2.7-6c0.3-0.5,2,0,3.3,0.6c1.4,0.6,2.8,0.8,2.6,3
	c-0.3,2.2-1.5,6.2-2.9,5.6c-1.396-0.688-2.875-1.192-4.4-1.5C73.4,48.9,71.4,48.6,72.1,47.2z M53.3,48.2c0.6-1.4,2.9-5.6,3.3-6
	c0.4-0.3,2.7-1.3,7-1.7c4.4-0.5,6.7-0.2,6.8,0c0,0.2,0.3,0-1,2.7c-1.3,2.8-1.6,4.7-2.7,4.6c-1,0-3.7-0.5-12.4,1.1
	C54.3,48.9,52.7,49.5,53.3,48.2z M49,58.6c0,0-4.7-2.8-0.4-5.2c7.298-3.828,15.802-4.653,23.7-2.3c10.9,3,14,5.7,12.4,7.2
	c-1.6,1.5-2.2-1.3-7.7-3.7c-6.406-2.821-13.502-3.69-20.4-2.5c-6.7,1.7-7.6,3-7.2,4C49.9,57.1,50.2,58.7,49,58.6z M51.9,63.3
	c0,0-0.9-0.9,0.2-1.6c1.1-0.8,4.6-2.9,5-3.4c0.5-0.5-0.3-1-1.2-1.4c-1-0.4-3.2-1.4-1-2c2.1-0.5,8-1.8,10.3-0.4
	c2.1,1.4,0.8,2.5-0.5,4.5c-1.3,2.1-2.4,2.6,0,2.6c2.3,0,2.4,0.5,3.8-1.5s4.5-3.3,6.5-1.8c1.9,1.3,1.7,3.6,0.7,4.5c0,0-1.8,1-1.7,2.5
	l0.1,4.4c0,0.8,0.2,1.5-2,1.4c-2.1-0.1-9.8,2-12.9,3.3c-2.3,0.8-1.8,0.3-3.5-3.3c-1.8-3.6-3.3-6.9-3.9-7.8H51.9z M54.4,114.7
	c-1.4,5-4.3,14.1-5.4,15.1c-1.2,1-2-1.399-2-1.399c0.7-0.7,3.5-8.8,5-12.8c1.6-4,2.1-7.6,3.2-7.6C56.2,108,55.8,109.799,54.4,114.7z
	 M81,137.4c-2,0.101-9.2,0.601-17.3-1.601c-8-2.199-7.3-1.699-6.9-4.5l2.3-14.5c0,0,0.2-4.399,1.8-2.699
	c3.431,3.299,7.621,5.703,12.2,7c6.8,2.3,6.3,1.199,6.5,3.6c0.445,3.144,1.114,6.252,2,9.301C82.4,136.6,83.1,137.299,81,137.4
	L81,137.4z M94,135.1c0,0-2.5-6.801-2.5-8.801S93.9,125,94.1,126l2,8c0,0.5-0.7,1.5-2.2,1.1H94z M102.7,109.299c0.3,2.4,2,9-4.7,7
	c-6.8-2.199-14.3-4-18.4-5.6c-4-1.6-8.7-1.8,1.7,4c10.4,5.9,11.2,3.301,10.4,5.9c-0.9,2.6-6.7-0.5-11.7-2.1
	c-5-1.601-16-3.9-22.2-15.201c-3.7-6.699-6-11.799-7.7-14c-1.2-1.5-2.7-1.199-2.3,0.201c0.5,1.6,2.5,3.5-0.4,3.699
	c0,0-11.5-2.4-12.3-5.5c-0.8-3.1,8.6-11,13-9.3c4.3,1.8,4.8,2.601,6.4,1.8c1.6-0.8,4.7-0.6,4.2,1.5S55.5,87,56.1,88.5
	c0.7,1.5,5,3.199,9.3,6.299c4.2,3.101,4.4,3.4,4.2,6.201c-0.2,2.699,5.8,2,9.7,2.299C83.3,103.6,102.3,106.799,102.7,109.299z
	 M91.2,95.9c2.3-3,4.8-6.601,5.6-6.399c0,0,2.6,5.6,1.4,14c0,0-17.6-3.5-20.3-3.5c-2.6,0-4,0-2.2-3.601c1.9-3.601,4.6-8.7,6.6-9
	c2-0.399,7.4-1.3,8.4-1.3c1.3-0.1,1,0.3-0.5,3.1C88.2,92.7,88.8,98.9,91.2,95.9z M75.2,90c-0.7,1-3,4.899-3.7,4.799
	c-0.7,0-3-2-5.2-3.1c-1.9-1-2.8-1.1-1.5-1.5c0,0,9.9-1.8,10.5-1.8C76,88.4,75.8,89,75.1,90H75.2z M114,78.1
	c-2,0.199-47.8,6.3-50.4,6.8c-2.6,0.601-0.5-2.5-0.5-2.5s0.6-1.2,1.8-1.3c2.2-0.301,49-5.7,50-5.7s1.3,0.3,1.4,1.3
	C116.3,77.7,116.1,78,114,78.1z M126.2,51.2L137,57v35.6l-9.8,5.4V93.2l4.4-2.699l0.1-31.101l-5.5-3V51.2z M113,78.799
	c0,0,0.6,0,0.3-1.299c-0.2-1.201-3.8-2.201-2.4-2.4c4.238-0.604,8.521-0.837,12.8-0.7c0.5,0.6,1.3,2.899,0.2,3.601
	c-1,0.699-11,0.799-11,0.799H113z"/>
<path fill="#F7E93E" d="M33.4,93c-1.1-1.201-1.7-3.801-1.4-4.4s0-1-2.3-0.5c-2.3,0.5,1.4-0.1-0.2,0c-1.6,0.199-1.1,1.1-1.1,1.1
	s-0.2,5.1,0.5,5.4c0.7,0.199,0.4-0.2,2.1-0.5C32.8,93.9,34.3,93.4,33.4,93z M122.6,76c0-1-0.4-1.3-1.4-1.3s-55,6.2-57.1,6.5
	c-1.3,0.1-1.9,1.301-1.9,1.301s-2,3,0.6,2.5c2.6-0.5,55.5-7.4,57.6-7.601C122.4,77.2,122.7,77,122.6,76z M72.5,49
	c2,0.4,3,0.8,4.5,1.5c1.4,0.7,2.6-3.4,2.8-5.6c0.2-2.1-1.1-2.4-2.5-3c-1.4-0.7-3-1-3.4-0.6l-2.7,6C70.5,48.7,72.5,49,72.5,49z
	 M53.5,49c8.6-1.6,11.3-1.1,12.4-1c1,0,1.3-2,2.7-4.7c1.3-2.8,1-2.5,1-2.7c-0.2-0.2-2.4-0.5-6.8,0c-4.3,0.5-6.7,1.4-7,1.8
	c-0.5,0.3-2.8,4.6-3.3,5.9C51.9,49.6,53.5,49,53.5,49z M83.9,58.4c1.6-1.4-1.6-4.1-12.4-7.1c-11-3-19.4-0.1-23.8,2.3
	c-4.3,2.3,0.4,5.1,0.4,5.1c1.3,0,1-1.5,0.5-2.5s0.4-2.3,7.2-4c6.7-1.6,15,0.3,20.4,2.6C81.7,57.1,82.2,59.8,83.9,58.4z M54.9,107.9
	c-1.1,0-1.6,3.601-3.2,7.601c-1.6,4-4.4,12-5,12.799c0,0,0.8,2.4,2,1.4c2.301-4.805,4.11-9.83,5.4-15
	C55.5,109.7,55.9,107.9,54.9,107.9z M79.3,124.6c-0.3-2.4,0.2-1.301-6.6-3.5c-4.554-1.341-8.708-3.779-12.1-7.1
	c-1.7-1.701-1.9,2.699-1.9,2.699l-2.2,14.5c-0.4,2.801-1.2,2.301,6.9,4.5c8,2.2,15.2,1.7,17.3,1.601c2-0.2,1.4-0.8,0.6-3.4
	C80.5,131.3,79.6,127,79.3,124.6L79.3,124.6z M91.2,126.2c0,2,2.4,8.801,2.4,8.801c1.4,0.399,2.2-0.701,2-1.201c0-0.5-1.6-7-1.8-8
	C93.5,124.9,91.2,124.2,91.2,126.2z M71.2,94.7c0.7,0,3-3.8,3.6-4.8c0.6-1,0.9-1.601,0.2-1.601S64.4,90,64.4,90
	c-1.2,0.399-0.3,0.6,1.6,1.5C68.2,92.5,70.4,94.5,71.2,94.7z M67.3,77.7c0,0,17-1.699,17.9-1.9c0.8,0-0.4-0.699-1.3-1.199
	c-1-0.5-4,0-5,0.1c-1,0-2.5-0.6-4-1c-1.5-0.3-6.4,2.4-7.6,3C66.1,77.2,67.3,77.7,67.3,77.7z M96.5,89.4
	c-0.8-0.2-3.3,3.399-5.7,6.399c-2.3,3-3-3.199-1-6.699c1.6-2.801,1.8-3.2,0.5-3.1C89.3,86,84,86.9,82,87.2c-2,0.4-4.8,5.5-6.6,9.1
	C73.5,100,74.9,99.9,77.6,99.9c2.6,0,20.2,3.5,20.2,3.5C99,95,96.5,89.4,96.5,89.4z"/>
<path fill="#087EC1" d="M13.2,38v12.8L78,13.3V0.1L13.2,38z"/>
<path fill="#53B748" d="M142.9,38v12.8L78,13.3V0.1L142.9,38z"/>
<path fill="#087EC1" d="M142.9,112.2V100.5L78.2,138v12.1L142.9,112.2z"/>
<path fill="#53B748" d="M13.2,112.2V100.5l65,37.5v12.1L13.2,112.2z"/>
<path fill="#087EC1" d="M22.1,99.2l-8.9-4.8V57.5l8.9-4.8V99.2z M110.5,73L124,44.9l1.3,24.4l-9.5,4.5L110.5,73z M111.3,80.6
	l12.1,25.699l1.9-4.199l-2.5-21.5H111.3z"/>
<g>
	<path fill="#087EC1" d="M160.364,26.185V15.783h34.459l-4.491,10.401h-9.348l-2.429,12.876h15.031V88.78l-13.61,11.271H163.8
		V65.043h-4.674l7.836-38.858H160.364z M180.206,49.096h-3.116v41.06h3.116V49.096z M223.142,81.539h-26.989V71.55h31.296
		L223.142,81.539z M196.61,15.783h41.425v36.475h4.903V87.68l-13.61,12.097h-20.712v-9.942h20.53V62.477h-31.802v-31.71h13.747
		v21.721h13.106V25.864H196.61V15.783z"/>
	<path fill="#087EC1" d="M306.223,82.318l-16.68,16.955l-39.545-0.046v-9.99h28.73l12.877-13.288h-41.607V65.73h49.947V14.913
		h15.625V65.73h20.164l-4.813,10.218l-11.133,0.046l15.485,23.278h-17.778L306.223,82.318z M274.009,16.103l15.123,18.421H271.26
		l-15.167-18.421H274.009z M274.146,40.527l15.167,18.421h-17.732l-15.213-18.421H274.146z"/>
	<path fill="#087EC1" d="M373.725,27.147h-33.45V15.828h83.215l-5.407,11.319h-27.677v60.487h33.726l-5.591,11.364h-78.402V87.634
		h33.587V27.147z"/>
	<path fill="#087EC1" d="M466.613,14.591h17.459l-11.547,26.577h12.966l28.32,58.7l-18.421,0.046l-25.02-52.651l-21.904,53.156
		l-17.642-0.047L466.613,14.591z"/>
</g>
<g>
	<path fill="#53B748" d="M166.944,133.41l-6.565-20.75h5.334l3.888,13.601l3.576-13.601h5.295l3.458,13.601l3.966-13.601h5.413
		l-6.664,20.75h-5.275l-3.575-13.345l-3.517,13.345H166.944z"/>
	<path fill="#53B748" d="M198.069,133.41l-6.565-20.75h5.334l3.888,13.601l3.576-13.601h5.294l3.458,13.601l3.967-13.601h5.412
		l-6.663,20.75h-5.276l-3.576-13.345l-3.517,13.345H198.069z"/>
	<path fill="#53B748" d="M229.194,133.41l-6.565-20.75h5.334l3.888,13.601l3.576-13.601h5.295l3.458,13.601l3.966-13.601h5.412
		l-6.663,20.75h-5.276l-3.575-13.345l-3.517,13.345H229.194z"/>
	<path fill="#53B748" d="M254.966,133.41v-5.49h5.489v5.49H254.966z"/>
	<path fill="#53B748" d="M265.673,112.66h5.062v2.833c1.81-2.201,3.966-3.302,6.467-3.302c1.328,0,2.48,0.273,3.458,0.82
		c0.977,0.547,1.778,1.374,2.403,2.481c0.912-1.107,1.896-1.935,2.95-2.481s2.182-0.82,3.38-0.82c1.524,0,2.814,0.31,3.869,0.929
		c1.055,0.618,1.843,1.527,2.364,2.726c0.377,0.885,0.565,2.317,0.565,4.299v13.266h-5.49V121.55c0-2.059-0.188-3.388-0.565-3.986
		c-0.508-0.782-1.29-1.172-2.345-1.172c-0.769,0-1.493,0.233-2.169,0.704c-0.678,0.468-1.167,1.154-1.466,2.061
		c-0.3,0.905-0.45,2.333-0.45,4.287v9.966h-5.489v-11.372c0-2.018-0.098-3.32-0.293-3.907c-0.195-0.585-0.499-1.022-0.909-1.31
		s-0.967-0.429-1.67-0.429c-0.846,0-1.609,0.228-2.286,0.683c-0.677,0.457-1.162,1.114-1.455,1.974
		c-0.293,0.86-0.44,2.286-0.44,4.279v10.082h-5.49V112.66z"/>
	<path fill="#53B748" d="M305.767,118.991l-4.982-0.899c0.561-2.007,1.523-3.49,2.891-4.456c1.368-0.963,3.399-1.444,6.098-1.444
		c2.449,0,4.271,0.29,5.471,0.869c1.198,0.579,2.041,1.315,2.529,2.209c0.489,0.892,0.733,2.53,0.733,4.914l-0.06,6.408
		c0,1.824,0.088,3.167,0.265,4.034c0.176,0.866,0.505,1.794,0.987,2.784h-5.433c-0.144-0.365-0.319-0.905-0.526-1.621
		c-0.093-0.326-0.157-0.541-0.196-0.645c-0.938,0.911-1.941,1.596-3.009,2.051c-1.069,0.455-2.208,0.684-3.421,0.684
		c-2.135,0-3.818-0.579-5.05-1.738c-1.23-1.16-1.846-2.625-1.846-4.397c0-1.172,0.279-2.216,0.84-3.136
		c0.56-0.918,1.345-1.622,2.354-2.108c1.009-0.489,2.465-0.916,4.365-1.28c2.567-0.482,4.346-0.933,5.336-1.35v-0.546
		c0-1.056-0.261-1.809-0.782-2.257c-0.521-0.45-1.505-0.674-2.95-0.674c-0.978,0-1.739,0.192-2.286,0.576
		C306.548,117.353,306.105,118.026,305.767,118.991z M313.113,123.444c-0.704,0.236-1.817,0.516-3.341,0.842
		c-1.524,0.325-2.521,0.644-2.99,0.956c-0.716,0.509-1.075,1.153-1.075,1.936c0,0.769,0.286,1.433,0.859,1.993
		c0.574,0.559,1.303,0.84,2.19,0.84c0.988,0,1.935-0.326,2.832-0.978c0.665-0.494,1.101-1.101,1.309-1.817
		c0.144-0.469,0.216-1.36,0.216-2.675V123.444z"/>
	<path fill="#53B748" d="M333.434,112.66v4.376h-3.752v8.364c0,1.692,0.035,2.679,0.107,2.959c0.07,0.281,0.233,0.512,0.487,0.693
		c0.254,0.183,0.563,0.274,0.929,0.274c0.509,0,1.243-0.177,2.207-0.527l0.471,4.26c-1.277,0.547-2.724,0.819-4.339,0.819
		c-0.99,0-1.883-0.165-2.677-0.497c-0.795-0.332-1.377-0.763-1.749-1.291c-0.37-0.526-0.628-1.24-0.771-2.139
		c-0.117-0.638-0.175-1.928-0.175-3.869v-9.047h-2.521v-4.376h2.521v-4.122l5.51-3.205v7.327H333.434z"/>
	<path fill="#53B748" d="M335.973,122.741c0-1.823,0.45-3.587,1.349-5.294s2.172-3.009,3.819-3.909
		c1.648-0.897,3.487-1.347,5.521-1.347c3.138,0,5.711,1.019,7.717,3.058s3.01,4.615,3.01,7.728c0,3.139-1.015,5.741-3.039,7.805
		c-2.025,2.065-4.575,3.098-7.648,3.098c-1.903,0-3.717-0.43-5.441-1.289c-1.727-0.859-3.039-2.12-3.938-3.781
		C336.423,127.148,335.973,125.125,335.973,122.741z M341.6,123.036c0,2.057,0.489,3.633,1.467,4.727
		c0.976,1.095,2.18,1.644,3.613,1.644s2.635-0.549,3.605-1.644c0.971-1.094,1.455-2.682,1.455-4.767
		c0-2.033-0.484-3.595-1.455-4.688c-0.971-1.095-2.172-1.643-3.605-1.643s-2.638,0.548-3.613,1.643
		C342.089,119.401,341.6,120.978,341.6,123.036z"/>
	<path fill="#53B748" d="M375.343,133.41v-3.107c-0.755,1.108-1.748,1.98-2.979,2.619c-1.232,0.638-2.531,0.957-3.898,0.957
		c-1.394,0-2.645-0.307-3.752-0.917c-1.107-0.613-1.908-1.473-2.403-2.58s-0.742-2.639-0.742-4.593V112.66h5.491v9.534
		c0,2.919,0.099,4.706,0.302,5.365c0.202,0.657,0.57,1.179,1.104,1.563s1.211,0.575,2.031,0.575c0.938,0,1.779-0.257,2.521-0.771
		c0.743-0.513,1.25-1.152,1.523-1.915c0.273-0.762,0.411-2.627,0.411-5.597v-8.754h5.49v20.75H375.343z"/>
	<path fill="#53B748" d="M385.62,134.778l6.272,0.763c0.104,0.729,0.344,1.23,0.724,1.503c0.52,0.391,1.341,0.586,2.461,0.586
		c1.434,0,2.508-0.215,3.223-0.645c0.483-0.287,0.849-0.748,1.096-1.388c0.169-0.456,0.254-1.295,0.254-2.52v-3.029
		c-1.641,2.24-3.713,3.361-6.215,3.361c-2.787,0-4.994-1.179-6.622-3.536c-1.277-1.863-1.915-4.182-1.915-6.955
		c0-3.479,0.837-6.137,2.511-7.973s3.755-2.755,6.243-2.755c2.565,0,4.682,1.126,6.35,3.38v-2.911h5.138v18.62
		c0,2.449-0.2,4.278-0.605,5.491c-0.404,1.211-0.971,2.161-1.699,2.852c-0.729,0.69-1.703,1.231-2.921,1.622
		s-2.759,0.586-4.622,0.586c-3.516,0-6.01-0.604-7.482-1.808c-1.472-1.204-2.208-2.731-2.208-4.58
		C385.601,135.259,385.607,135.039,385.62,134.778z M390.524,122.605c0,2.201,0.426,3.813,1.28,4.835
		c0.854,1.023,1.905,1.534,3.154,1.534c1.343,0,2.476-0.522,3.401-1.572c0.924-1.049,1.387-2.603,1.387-4.661
		c0-2.148-0.443-3.744-1.329-4.786c-0.885-1.042-2.006-1.563-3.36-1.563c-1.315,0-2.399,0.511-3.253,1.533
		C390.95,118.949,390.524,120.507,390.524,122.605z"/>
	<path fill="#53B748" d="M415.827,133.41h-5.49v-20.75h5.099v2.95c0.872-1.394,1.659-2.313,2.354-2.755
		c0.697-0.442,1.488-0.664,2.375-0.664c1.251,0,2.455,0.346,3.614,1.035l-1.7,4.787c-0.925-0.599-1.784-0.898-2.578-0.898
		c-0.77,0-1.42,0.212-1.955,0.636c-0.533,0.422-0.954,1.189-1.26,2.295c-0.306,1.106-0.459,3.426-0.459,6.954V133.41z"/>
	<path fill="#53B748" d="M423.936,133.41v-5.49h5.49v5.49H423.936z"/>
	<path fill="#53B748" d="M453.146,118.794l-5.412,0.978c-0.183-1.082-0.596-1.896-1.241-2.442c-0.644-0.548-1.481-0.82-2.51-0.82
		c-1.368,0-2.459,0.471-3.272,1.416c-0.814,0.945-1.222,2.524-1.222,4.739c0,2.461,0.413,4.2,1.241,5.217
		c0.827,1.015,1.938,1.524,3.332,1.524c1.041,0,1.893-0.298,2.558-0.891c0.664-0.593,1.135-1.611,1.407-3.058l5.394,0.919
		c-0.562,2.475-1.635,4.343-3.224,5.607c-1.591,1.263-3.72,1.895-6.39,1.895c-3.036,0-5.456-0.957-7.259-2.872
		c-1.805-1.914-2.707-4.565-2.707-7.952c0-3.426,0.905-6.093,2.717-8c1.811-1.909,4.26-2.863,7.347-2.863
		c2.526,0,4.535,0.545,6.026,1.632C451.423,114.91,452.494,116.568,453.146,118.794z"/>
	<path fill="#53B748" d="M456.036,122.741c0-1.823,0.45-3.587,1.35-5.294c0.898-1.707,2.172-3.009,3.819-3.909
		c1.647-0.897,3.486-1.347,5.519-1.347c3.14,0,5.713,1.019,7.719,3.058s3.009,4.615,3.009,7.728c0,3.139-1.014,5.741-3.039,7.805
		c-2.025,2.065-4.575,3.098-7.649,3.098c-1.9,0-3.715-0.43-5.44-1.289c-1.727-0.859-3.038-2.12-3.937-3.781
		C456.486,127.148,456.036,125.125,456.036,122.741z M461.663,123.036c0,2.057,0.489,3.633,1.467,4.727
		c0.977,1.095,2.181,1.644,3.614,1.644s2.635-0.549,3.604-1.644c0.972-1.094,1.456-2.682,1.456-4.767
		c0-2.033-0.484-3.595-1.456-4.688c-0.97-1.095-2.171-1.643-3.604-1.643s-2.638,0.548-3.614,1.643
		C462.152,119.401,461.663,120.978,461.663,123.036z"/>
	<path fill="#53B748" d="M481.34,112.66h5.061v2.833c1.811-2.201,3.965-3.302,6.467-3.302c1.329,0,2.481,0.273,3.458,0.82
		c0.978,0.547,1.778,1.374,2.403,2.481c0.91-1.107,1.896-1.935,2.95-2.481s2.182-0.82,3.38-0.82c1.524,0,2.814,0.31,3.869,0.929
		c1.055,0.618,1.843,1.527,2.364,2.726c0.377,0.885,0.566,2.317,0.566,4.299v13.266h-5.49V121.55c0-2.059-0.189-3.388-0.566-3.986
		c-0.508-0.782-1.29-1.172-2.344-1.172c-0.77,0-1.493,0.233-2.17,0.704c-0.677,0.468-1.166,1.154-1.465,2.061
		c-0.301,0.905-0.45,2.333-0.45,4.287v9.966h-5.49v-11.372c0-2.018-0.097-3.32-0.293-3.907c-0.195-0.585-0.498-1.022-0.909-1.31
		c-0.41-0.287-0.966-0.429-1.669-0.429c-0.848,0-1.609,0.228-2.287,0.683c-0.677,0.457-1.162,1.114-1.456,1.974
		c-0.292,0.86-0.438,2.286-0.438,4.279v10.082h-5.49V112.66z"/>
</g>
</svg>
