<?xml version="1.0" encoding="utf-8"?>
<!-- Generator: Adobe Illustrator 16.0.0, SVG Export Plug-In . SVG Version: 6.00 Build 0)  -->
<!DOCTYPE svg PUBLIC "-//W3C//DTD SVG 1.1//EN" "http://www.w3.org/Graphics/SVG/1.1/DTD/svg11.dtd">
<svg version="1.1" id="图层_1" xmlns="http://www.w3.org/2000/svg" xmlns:xlink="http://www.w3.org/1999/xlink" x="0px" y="0px"
	 width="522.9px" height="150.2px" viewBox="0 0 522.9 150.2" enable-background="new 0 0 522.9 150.2" xml:space="preserve">
<path fill="#087EC1" d="M71,63.3c1.2-0.1,2.3-1.8,2.8-2.5c0.6-0.8-0.4-0.8-0.7-1c-0.3-0.1-0.5-0.1-1,0.2c-0.6,0.4-1,1.1-1.5,1.6
	c-0.4,0.4-0.1,0.4-0.1,1C70.5,63.1,71,63.3,71,63.3z M101.5,132.4l-2.6-5.5c-1.4-2.8,0-2.8,2.1-4.601c2-1.899,4-1,7-1.699
	c3-0.7,2-3.2,2.7-6.4c0.7-3.3-1.8-6-2.3-7c-0.4-1,0-3.199-0.9-7c-1-3.699-4.6-14.5-5.6-15.199c-0.9-0.701,16.3-3.101,16.3-3.101
	c6-1.399,5.2,24.399,5.2,24.399L143,94.6V56.3l-19-11.4c0,0-0.3,21.3-3,24.2s-6.8,3.5-6.8,3.5l-23.4,3c-1.5-2.1-9.8-6-9.8-6
	c-0.1-5.1,2.5-7,5.7-8.9c3.2-1.8,2.6-4.5,1.7-5.3c-1-0.7-1-1.8-1-1.8c-0.2-6.9-4-17.9-16.8-17.8c-11.6,0-15.1,2.2-17.8,7
	c-2.7,4.8-4.1,6.3-6.5,7.8c-2.4,1.5-2.3,2.6-3.3,5.1c-1,2.6,4.2,4.9,4.6,5.8c0.5,0.9-1.3,3.6-1.3,3.6l3.6,1.5l2.5,8.2L41,76.5
	l-8.4,7L24.1,84.2v14.9c0,0,11-1.9,11.7-1.9c1.1,0,4,1.6,5.5,2.1c1.7,0.5,4.9,0.201,7.4,1C51.3,100.9,51.3,107,51.3,107
	c-1.997,6.675-4.854,13.062-8.5,19l2.2,1.799c8.6,6.801,27,29.601,56.6,4.601H101.5z M29.2,91.4c-1.8,0.2,0.3,0.8-0.4,0.601
	C28.1,91.7,28,89.6,28,89.6s-0.4-1,0.7-1.6c1.6-0.101-1.3,0.399,1,0c2.3-0.601,2.6-0.201,2.3,0.5c-0.4,0.6-1.2,0.699-0.3,1
	c0.9,0.399-0.8,1.6-2.5,1.799V91.4z M84.2,74.8c1,0.5,2,1,1.3,1.201l-17.9,1.799c0,0-1.2-0.5,0-1c1.3-0.6,6.1-3.299,7.6-2.899
	s3,1,4,1C80.2,74.8,83.2,74.3,84.2,74.8z M72.1,47.2c0.8-1.8,2.3-5.6,2.7-6c0.3-0.5,2,0,3.3,0.6c1.4,0.6,2.8,0.8,2.6,3
	c-0.3,2.2-1.5,6.2-2.9,5.6c-1.396-0.688-2.875-1.192-4.4-1.5C73.4,48.9,71.4,48.6,72.1,47.2z M53.3,48.2c0.6-1.4,2.9-5.6,3.3-6
	c0.4-0.3,2.7-1.3,7-1.7c4.4-0.5,6.7-0.2,6.8,0c0,0.2,0.3,0-1,2.7c-1.3,2.8-1.6,4.7-2.7,4.6c-1,0-3.7-0.5-12.4,1.1
	C54.3,48.9,52.7,49.5,53.3,48.2z M49,58.6c0,0-4.7-2.8-0.4-5.2c7.298-3.828,15.802-4.653,23.7-2.3c10.9,3,14,5.7,12.4,7.2
	c-1.6,1.5-2.2-1.3-7.7-3.7c-6.406-2.821-13.502-3.69-20.4-2.5c-6.7,1.7-7.6,3-7.2,4C49.9,57.1,50.2,58.7,49,58.6z M51.9,63.3
	c0,0-0.9-0.9,0.2-1.6c1.1-0.8,4.6-2.9,5-3.4c0.5-0.5-0.3-1-1.2-1.4c-1-0.4-3.2-1.4-1-2c2.1-0.5,8-1.8,10.3-0.4
	c2.1,1.4,0.8,2.5-0.5,4.5c-1.3,2.1-2.4,2.6,0,2.6c2.3,0,2.4,0.5,3.8-1.5s4.5-3.3,6.5-1.8c1.9,1.3,1.7,3.6,0.7,4.5c0,0-1.8,1-1.7,2.5
	l0.1,4.4c0,0.8,0.2,1.5-2,1.4c-2.1-0.1-9.8,2-12.9,3.3c-2.3,0.8-1.8,0.3-3.5-3.3c-1.8-3.6-3.3-6.9-3.9-7.8H51.9z M54.4,114.7
	c-1.4,5-4.3,14.1-5.4,15.1c-1.2,1-2-1.399-2-1.399c0.7-0.7,3.5-8.8,5-12.8c1.6-4,2.1-7.6,3.2-7.6C56.2,108,55.8,109.799,54.4,114.7z
	 M81,137.4c-2,0.101-9.2,0.601-17.3-1.601c-8-2.199-7.3-1.699-6.9-4.5l2.3-14.5c0,0,0.2-4.399,1.8-2.699
	c3.431,3.299,7.621,5.703,12.2,7c6.8,2.3,6.3,1.199,6.5,3.6c0.445,3.144,1.114,6.252,2,9.301C82.4,136.6,83.1,137.299,81,137.4
	L81,137.4z M94,135.1c0,0-2.5-6.801-2.5-8.801S93.9,125,94.1,126l2,8c0,0.5-0.7,1.5-2.2,1.1H94z M102.7,109.299c0.3,2.4,2,9-4.7,7
	c-6.8-2.199-14.3-4-18.4-5.6c-4-1.6-8.7-1.8,1.7,4c10.4,5.9,11.2,3.301,10.4,5.9c-0.9,2.6-6.7-0.5-11.7-2.1
	c-5-1.601-16-3.9-22.2-15.201c-3.7-6.699-6-11.799-7.7-14c-1.2-1.5-2.7-1.199-2.3,0.201c0.5,1.6,2.5,3.5-0.4,3.699
	c0,0-11.5-2.4-12.3-5.5c-0.8-3.1,8.6-11,13-9.3c4.3,1.8,4.8,2.601,6.4,1.8c1.6-0.8,4.7-0.6,4.2,1.5S55.5,87,56.1,88.5
	c0.7,1.5,5,3.199,9.3,6.299c4.2,3.101,4.4,3.4,4.2,6.201c-0.2,2.699,5.8,2,9.7,2.299C83.3,103.6,102.3,106.799,102.7,109.299z
	 M91.2,95.9c2.3-3,4.8-6.601,5.6-6.399c0,0,2.6,5.6,1.4,14c0,0-17.6-3.5-20.3-3.5c-2.6,0-4,0-2.2-3.601c1.9-3.601,4.6-8.7,6.6-9
	c2-0.399,7.4-1.3,8.4-1.3c1.3-0.1,1,0.3-0.5,3.1C88.2,92.7,88.8,98.9,91.2,95.9z M75.2,90c-0.7,1-3,4.899-3.7,4.799
	c-0.7,0-3-2-5.2-3.1c-1.9-1-2.8-1.1-1.5-1.5c0,0,9.9-1.8,10.5-1.8C76,88.4,75.8,89,75.1,90H75.2z M114,78.1
	c-2,0.199-47.8,6.3-50.4,6.8c-2.6,0.601-0.5-2.5-0.5-2.5s0.6-1.2,1.8-1.3c2.2-0.301,49-5.7,50-5.7s1.3,0.3,1.4,1.3
	C116.3,77.7,116.1,78,114,78.1z M126.2,51.2L137,57v35.6l-9.8,5.4V93.2l4.4-2.699l0.1-31.101l-5.5-3V51.2z M113,78.799
	c0,0,0.6,0,0.3-1.299c-0.2-1.201-3.8-2.201-2.4-2.4c4.238-0.604,8.521-0.837,12.8-0.7c0.5,0.6,1.3,2.899,0.2,3.601
	c-1,0.699-11,0.799-11,0.799H113z"/>
<path fill="#F7E93E" d="M33.4,93c-1.1-1.201-1.7-3.801-1.4-4.4s0-1-2.3-0.5c-2.3,0.5,1.4-0.1-0.2,0c-1.6,0.199-1.1,1.1-1.1,1.1
	s-0.2,5.1,0.5,5.4c0.7,0.199,0.4-0.2,2.1-0.5C32.8,93.9,34.3,93.4,33.4,93z M122.6,76c0-1-0.4-1.3-1.4-1.3s-55,6.2-57.1,6.5
	c-1.3,0.1-1.9,1.301-1.9,1.301s-2,3,0.6,2.5c2.6-0.5,55.5-7.4,57.6-7.601C122.4,77.2,122.7,77,122.6,76z M72.5,49
	c2,0.4,3,0.8,4.5,1.5c1.4,0.7,2.6-3.4,2.8-5.6c0.2-2.1-1.1-2.4-2.5-3c-1.4-0.7-3-1-3.4-0.6l-2.7,6C70.5,48.7,72.5,49,72.5,49z
	 M53.5,49c8.6-1.6,11.3-1.1,12.4-1c1,0,1.3-2,2.7-4.7c1.3-2.8,1-2.5,1-2.7c-0.2-0.2-2.4-0.5-6.8,0c-4.3,0.5-6.7,1.4-7,1.8
	c-0.5,0.3-2.8,4.6-3.3,5.9C51.9,49.6,53.5,49,53.5,49z M83.9,58.4c1.6-1.4-1.6-4.1-12.4-7.1c-11-3-19.4-0.1-23.8,2.3
	c-4.3,2.3,0.4,5.1,0.4,5.1c1.3,0,1-1.5,0.5-2.5s0.4-2.3,7.2-4c6.7-1.6,15,0.3,20.4,2.6C81.7,57.1,82.2,59.8,83.9,58.4z M54.9,107.9
	c-1.1,0-1.6,3.601-3.2,7.601c-1.6,4-4.4,12-5,12.799c0,0,0.8,2.4,2,1.4c2.301-4.805,4.11-9.83,5.4-15
	C55.5,109.7,55.9,107.9,54.9,107.9z M79.3,124.6c-0.3-2.4,0.2-1.301-6.6-3.5c-4.554-1.341-8.708-3.779-12.1-7.1
	c-1.7-1.701-1.9,2.699-1.9,2.699l-2.2,14.5c-0.4,2.801-1.2,2.301,6.9,4.5c8,2.2,15.2,1.7,17.3,1.601c2-0.2,1.4-0.8,0.6-3.4
	C80.5,131.3,79.6,127,79.3,124.6L79.3,124.6z M91.2,126.2c0,2,2.4,8.801,2.4,8.801c1.4,0.399,2.2-0.701,2-1.201c0-0.5-1.6-7-1.8-8
	C93.5,124.9,91.2,124.2,91.2,126.2z M71.2,94.7c0.7,0,3-3.8,3.6-4.8c0.6-1,0.9-1.601,0.2-1.601S64.4,90,64.4,90
	c-1.2,0.399-0.3,0.6,1.6,1.5C68.2,92.5,70.4,94.5,71.2,94.7z M67.3,77.7c0,0,17-1.699,17.9-1.9c0.8,0-0.4-0.699-1.3-1.199
	c-1-0.5-4,0-5,0.1c-1,0-2.5-0.6-4-1c-1.5-0.3-6.4,2.4-7.6,3C66.1,77.2,67.3,77.7,67.3,77.7z M96.5,89.4
	c-0.8-0.2-3.3,3.399-5.7,6.399c-2.3,3-3-3.199-1-6.699c1.6-2.801,1.8-3.2,0.5-3.1C89.3,86,84,86.9,82,87.2c-2,0.4-4.8,5.5-6.6,9.1
	C73.5,100,74.9,99.9,77.6,99.9c2.6,0,20.2,3.5,20.2,3.5C99,95,96.5,89.4,96.5,89.4z"/>
<path fill="#53B748" d="M195.3,115.9l-7.5,22.7H182l-3.8-14.5l-3.8,14.5h-5.8l-7.7-22.7h5.8l4.9,15.3l3.8-15.3h5.4l4,15.3l4.7-15.3
	H195.3L195.3,115.9z M230.7,115.9l-7.6,22.7h-5.8l-3.7-14.5l-3.8,14.5H204l-7.8-22.7h5.8l5,15.3l3.8-15.3h5.3l4,15.3l4.8-15.3H230.7
	z M266.101,115.9l-7.601,22.7h-5.8L249,124l-3.9,14.6h-5.8l-7.7-22.7h5.8l5,15.3l3.8-15.3h5.3l4,15.3l4.8-15.3H266.101z
	 M267.899,138.299v-6h6.4v6H267.899z M294,135.5v-7.9h-5.601c-4.399,0-6.5,1.5-6.399,4.3c-0.101,2.399,1.8,3.601,5.8,3.601H294z
	 M288.7,123.7h5.3c0.101-3.199-1.601-4.8-5.3-4.699c-3.5-0.101-5.6,1.199-6.4,4h-4.8c1.399-5.201,5.101-7.801,11.2-7.701
	c6.3,0,9.5,2.701,9.5,8.201V139.2h-10.6c-6.701,0-10-2.3-10-7c0-5.6,3.799-8.4,11-8.4L288.7,123.7z M303.4,138.7v-23.3h12.3
	c6.6,0,9.8,2.899,9.7,9v14.2H319.3v-14.1c0-3.5-1.7-5.201-5.2-5.201h-4.6V138.6h-6.1V138.7z M341.9,135.5c4,0,6-2.701,6-8
	c-0.2-5.4-2.101-8.101-6-8.201c-3.801,0-5.7,2.801-5.801,8.201C336.1,132.6,338.1,135.299,341.9,135.5z M341.9,139.2
	c-7.601-0.4-11.601-4.3-12-11.699c0.199-7.9,4.3-12,12.1-12.201c7.8,0.301,11.8,4.301,12,12C353.9,134.9,349.8,138.9,341.9,139.2z
	 M369.9,135.5c3.899,0,5.899-2.701,5.899-8c-0.1-5.4-2.1-8.101-6-8.201c-3.7,0-5.7,2.801-5.8,8.201c0.1,5.1,2,7.799,5.8,8H369.9z
	 M369.9,139.2c-7.7-0.4-11.7-4.3-12.101-11.699c0.3-7.9,4.3-12,12.2-12.201c7.7,0.301,11.7,4.301,12,12
	c-0.2,7.601-4.2,11.601-12.2,11.9H369.9z M409.7,123.299H403.6c-1-2.699-2.8-4-5.699-4c-3.801,0.201-5.801,3-6,8.201
	c0.199,5.299,2.8,8,8,8.1c3,0,6.3-1.7,9.8-5.301v4.601c-2.7,3-6.5,4.5-11.5,4.5c-7.9-0.399-12-4.399-12.4-12
	c0-7.8,4.101-11.8,12.101-12.101C404.2,115.299,408.1,118.1,409.7,123.299L409.7,123.299z M412.7,138.299v-6h6.5v6h-6.4H412.7z
	 M446.5,123.299h-6c-1-2.699-2.8-4-5.7-4c-3.899,0.201-5.899,3-6,8.201c0.101,5.299,2.8,8,8,8.1c3,0,6.3-1.7,9.7-5.301v4.601
	c-2.6,3-6.5,4.5-11.4,4.5c-8-0.399-12.1-4.399-12.5-12c0.101-7.8,4.2-11.8,12.2-12.101C441,115.299,444.9,118.1,446.5,123.299
	L446.5,123.299z M462.3,135.5c4,0,6-2.701,6-8c-0.2-5.4-2.2-8.101-6-8.201c-3.8,0-5.7,2.801-5.8,8.201
	C456.5,132.6,458.5,135.299,462.3,135.5z M462.3,139.2c-7.7-0.4-11.7-4.3-12-11.699c0.2-7.9,4.3-12,12.101-12.201
	c7.699,0.301,11.8,4.301,12,12C474.3,134.9,470.2,138.9,462.3,139.2z M479.1,138.6v-23.2h26.7c6.2,0,9.2,2.601,9,8v15.2h-6V124
	c0-3-1.6-4.601-5-4.601H500v19.3h-6v-15c0-2.9-1.6-4.3-4.5-4.3h-4.3v19.3H479L479.1,138.6z"/>
<path fill="#087EC1" d="M13.2,38v12.8L78,13.3V0.1L13.2,38z"/>
<path fill="#53B748" d="M142.9,38v12.8L78,13.3V0.1L142.9,38z"/>
<path fill="#087EC1" d="M142.9,112.2V100.5L78.2,138v12.1L142.9,112.2z"/>
<path fill="#53B748" d="M13.2,112.2V100.5l65,37.5v12.1L13.2,112.2z"/>
<path fill="#087EC1" d="M22.1,99.2l-8.9-4.8V57.5l8.9-4.8V99.2z M110.5,73L124,44.9l1.3,24.4l-9.5,4.5L110.5,73z M111.3,80.6
	l12.1,25.699l1.9-4.199l-2.5-21.5H111.3z"/>
<g>
	<path fill="#087EC1" d="M157.41,29.436v-10.51h34.819l-4.538,10.51h-9.446l-2.454,13.011h15.188v50.239l-13.752,11.39h-16.345
		V68.701h-4.723l7.918-39.265H157.41z M177.458,52.587h-3.148v41.487h3.148V52.587z M220.844,85.37h-27.272V75.276h31.625
		L220.844,85.37z M194.035,18.926h41.858v36.857h4.954v35.792l-13.752,12.224h-20.929V93.75h20.744V66.108h-32.134V34.066h13.891
		v21.948h13.243V29.112h-27.875V18.926z"/>
	<path fill="#087EC1" d="M304.794,86.157l-16.854,17.132l-39.959-0.046V93.149h29.032l13.012-13.428h-42.043V69.396h50.469v-51.35
		h15.789v51.35h20.375l-4.863,10.326l-11.25,0.046l15.648,23.521h-17.965L304.794,86.157z M272.243,19.25l15.281,18.614h-18.059
		L254.139,19.25H272.243z M272.382,43.929l15.326,18.613H269.79l-15.373-18.613H272.382z"/>
	<path fill="#087EC1" d="M373.002,30.409h-33.801V18.972h84.085l-5.463,11.437h-27.967v61.119h34.078l-5.648,11.483h-79.224V91.528
		h33.939V30.409z"/>
	<path fill="#087EC1" d="M466.861,17.722h17.642l-11.668,26.855h13.104l28.615,59.314l-18.614,0.046l-25.281-53.202l-22.133,53.711
		l-17.826-0.047L466.861,17.722z"/>
</g>
</svg>
